<?xml version="1.0" encoding="utf-8"?>
<!-- Generator: Adobe Illustrator 16.0.4, SVG Export Plug-In . SVG Version: 6.00 Build 0)  -->
<!DOCTYPE svg PUBLIC "-//W3C//DTD SVG 1.1//EN" "http://www.w3.org/Graphics/SVG/1.1/DTD/svg11.dtd">
<svg version="1.1" id="Calque_1" xmlns="http://www.w3.org/2000/svg" xmlns:xlink="http://www.w3.org/1999/xlink" x="0px" y="0px"
	 width="160.044px" height="37.081px" viewBox="1.542 0.46 160.044 37.081" enable-background="new 1.542 0.46 160.044 37.081"
	 xml:space="preserve">
<g>
	<g>
		<path fill="#28ADE1" d="M33.916,2.749c-7.04,0-13.221,4.451-15.649,10.682c-0.473-1.281-4.57-11.438-16.491-12.97
			c0,0-2.47,11.301,8.635,18.54c-11.104,7.239-8.635,18.542-8.635,18.542c11.414-1.466,15.658-10.839,16.405-12.759
			c2.365,6.343,8.606,10.901,15.733,10.901c9.082,0,16.467-7.382,16.467-16.472C50.381,10.134,42.996,2.749,33.916,2.749z
			 M33.916,29.174c-5.492,0-9.958-4.468-9.958-9.959c0-5.49,4.468-9.958,9.958-9.958s9.965,4.468,9.965,9.958
			C43.88,24.706,39.408,29.174,33.916,29.174z"/>
	</g>
	<path fill="#010101" d="M33.926,15.462c-2.075,0-3.753,1.689-3.753,3.758c0,2.069,1.679,3.757,3.753,3.757
		c2.068,0,3.752-1.688,3.752-3.757C37.678,17.15,35.995,15.462,33.926,15.462z"/>
</g>
<g>
	<g>
		<path fill="#010101" d="M69.362,28.397h-8.463c-0.823,0-1.474-0.652-1.474-1.475c0-0.821,0.651-1.473,1.474-1.473h2.636v-7.086
			h-2.247c-0.822,0-1.501-0.652-1.501-1.476c0-0.822,0.68-1.475,1.501-1.475h3.843c0.873,0,1.596,0.726,1.596,1.597v8.441h2.636
			c0.823,0,1.476,0.651,1.476,1.474C70.838,27.746,70.185,28.397,69.362,28.397z M65.036,13.428c-1.355,0-2.442-1.089-2.442-2.443
			c0-1.354,1.088-2.442,2.442-2.442s2.441,1.09,2.441,2.442C67.477,12.339,66.389,13.428,65.036,13.428z"/>
		<path fill="#010101" d="M79.134,28.518c-2.321,0-4.715-0.846-5.755-1.935c-0.338-0.339-0.484-0.75-0.484-1.091
			c0-0.651,0.484-1.354,1.258-1.354c1.164,0,1.33,1.912,5.295,1.912c1.5,0,2.903-0.435,2.903-1.474c0-0.364-0.242-0.823-0.653-0.992
			c-0.315-0.12-0.799-0.241-1.523-0.36c-3.58-0.606-5.005-1.019-5.756-1.693c-0.75-0.651-1.04-1.377-1.04-2.296
			c0-1.402,1.04-3.942,5.733-3.942c0.967,0,3.625,0.218,4.739,1.33c0.291,0.289,0.435,0.604,0.435,1.015
			c0,0.775-0.484,1.233-1.208,1.233c-0.968,0-1.112-1.207-3.966-1.207c-1.33,0-2.66,0.434-2.66,1.402
			c0,0.337,0.218,0.555,0.315,0.651c0.579,0.579,4.859,0.822,6.527,1.523c0.461,0.195,0.825,0.411,1.163,0.773
			c0.605,0.628,0.968,1.475,0.968,2.469C85.425,27.623,82.45,28.518,79.134,28.518z"/>
		<path fill="#010101" d="M98.024,28.397H89.56c-0.822,0-1.475-0.652-1.475-1.475c0-0.821,0.653-1.473,1.475-1.473h2.638v-7.086
			h-2.25c-0.823,0-1.499-0.652-1.499-1.476c0-0.822,0.676-1.475,1.499-1.475h3.844c0.87,0,1.597,0.726,1.597,1.597v8.441h2.636
			c0.821,0,1.477,0.651,1.477,1.474C99.501,27.746,98.846,28.397,98.024,28.397z M93.696,13.428c-1.354,0-2.441-1.089-2.441-2.443
			c0-1.354,1.089-2.442,2.441-2.442c1.354,0,2.44,1.09,2.44,2.442C96.137,12.339,95.051,13.428,93.696,13.428z"/>
		<path fill="#010101" d="M111.109,12.508c0-0.871,0.726-1.596,1.597-1.596c0.872,0,1.595,0.725,1.595,1.596v14.318
			c0,0.895-0.578,1.597-1.523,1.597c-1.207,0-1.499-1.112-1.499-1.474c-0.822,0.845-2.225,1.572-3.919,1.572
			c-3.698,0-6.288-2.952-6.288-6.627c0-3.725,2.564-6.628,6.288-6.628c1.574,0,2.927,0.679,3.748,1.501L111.109,12.508
			L111.109,12.508z M107.676,17.95c-2.178,0-3.41,1.718-3.41,3.942c0,2.225,1.232,3.942,3.41,3.942c2.174,0,3.434-1.766,3.434-3.942
			C111.109,19.716,109.853,17.95,107.676,17.95z"/>
		<path fill="#010101" d="M124.896,28.518c-3.653,0-6.601-2.952-6.601-6.6c0-3.677,2.95-6.628,6.601-6.628
			c3.675,0,6.628,2.951,6.628,6.628C131.522,25.567,128.571,28.518,124.896,28.518z M124.896,17.973
			c-2.175,0-3.409,1.766-3.409,3.944c0,2.175,1.234,3.918,3.409,3.918c2.176,0,3.436-1.741,3.436-3.918
			C128.329,19.74,127.072,17.973,124.896,17.973z"/>
		<path fill="#010101" d="M145.285,19.618c-1.09,0-1.187-1.645-3.362-1.645c-2.056,0-3.217,1.885-3.217,3.652v5.177
			c0,0.895-0.698,1.595-1.595,1.595c-0.871,0-1.596-0.7-1.596-1.595v-9.82c0-0.873,0.725-1.597,1.596-1.597
			c0.681,0,1.502,0.557,1.502,1.306c0.65-0.724,1.983-1.4,3.65-1.4c1.525,0,4.45,0.99,4.45,2.902
			C146.711,19.039,146.131,19.618,145.285,19.618z"/>
		<path fill="#010101" d="M161.586,21.722c0,0.7-0.606,1.401-1.452,1.401h-7.908c0,1.329,1.163,2.853,3.289,2.853
			c1.572,0,2.174-0.7,2.709-1.159c0.193-0.17,0.577-0.391,0.989-0.391c0.752,0,1.355,0.534,1.355,1.379
			c0,0.362-0.12,0.652-0.337,0.92c-0.969,1.088-2.589,1.789-4.644,1.789c-3.821,0-6.53-2.878-6.53-6.602
			c0-3.843,2.733-6.626,6.433-6.626c3.482,0,6.096,2.78,6.096,6.384V21.722L161.586,21.722z M158.516,20.61
			c0-1.329-1.186-2.805-2.999-2.805c-2.057,0-3.24,1.477-3.24,2.805H158.516z"/>
	</g>
</g>
</svg>
